<svg xmlns="http://www.w3.org/2000/svg" class="icon" version="1.1" viewBox="0 0 1024 1024"><path fill="#3688FF" d="M512 1024C229.7 1024 0 794.3 0 512S229.7 0 512 0s512 229.7 512 512-229.7 512-512 512z m0-938.7C276.7 85.3 85.3 276.7 85.3 512S276.7 938.7 512 938.7 938.7 747.3 938.7 512 747.3 85.3 512 85.3z"/><path fill="#5F6379" d="M682.7 554.7H341.3c-23.6 0-42.7-19.1-42.7-42.7s19.1-42.7 42.7-42.7h341.3c23.6 0 42.7 19.1 42.7 42.7s-19.1 42.7-42.6 42.7z"/><path fill="#5F6379" d="M512 725.3c-23.6 0-42.7-19.1-42.7-42.7V341.3c0-23.6 19.1-42.7 42.7-42.7s42.7 19.1 42.7 42.7v341.3c0 23.6-19.1 42.7-42.7 42.7z"/></svg>